<svg xmlns="http://www.w3.org/2000/svg" width="560" height="120" viewBox="0 0 560 120" fill="none">
  <g transform="translate(6,4) scale(0.219)">
    <polygon points="255.98 342.75 271.89 333.57 271.89 267.12 329.08 234.1 329.08 215.78 313.18 206.6 255.6 239.84 198.83 207.06 182.93 216.24 182.93 234.56 240.12 267.58 240.12 333.59 255.98 342.75" fill="#e2baff"/>
    <polygon points="401.95 150.82 256 66.56 256 66.56 256 66.56 110.05 150.82 110.05 187.5 256 103.24 401.95 187.5 401.95 150.82" fill="#e2baff"/>
    <polygon points="401.95 324.5 256 408.76 110.06 324.5 110.06 361.17 256 445.43 256 445.43 256 445.43 401.95 361.17 401.95 324.5" fill="#e2baff"/>
  </g>
  <text x="130" y="82" font-family="-apple-system, BlinkMacSystemFont, 'Segoe UI', Roboto, sans-serif" font-size="58" font-weight="500" fill="#ffffff" letter-spacing="-0.5">OpenCloud</text>
</svg>
